<?xml version="1.0" encoding="UTF-8"?>
<svg width="934px" height="59px" viewBox="0 0 934 59" version="1.1" xmlns="http://www.w3.org/2000/svg" xmlns:xlink="http://www.w3.org/1999/xlink">
    <!-- Generator: Sketch 45.2 (43514) - http://www.bohemiancoding.com/sketch -->
    <title>人生苦短，我用 PyCon 馬拉鬆超速!</title>
    <desc>Created with Sketch.</desc>
    <defs></defs>
    <g id="April-Fools'-Day" stroke="none" stroke-width="1" fill="none" fill-rule="evenodd">
        <g id="AprilFoolsDayUI" transform="translate(-157.000000, -131.000000)" fill="#FFFFFF">
            <path d="M208.93746,132.415 L203.101023,132.415 C202.020149,134.505 200.487608,137.365 198.586668,141.05 C190.038445,156.835 176.211939,169.155 157,177.955 L157.904395,183.125 C173.078298,175.755 185.342522,166.46 194.707678,155.24 C193.014606,166.845 195.575754,176.085 202.347582,183.015 L208.763978,177.955 C200.162742,170.31 197.935722,159.255 202.165293,144.79 C204.141938,141.38 206.435369,137.255 208.93746,132.415 Z M239.972597,147.375 L251.642151,147.375 L246.102114,158.155 L230.582784,158.155 L227.739841,163.71 L243.257365,163.71 L237.140548,175.7 L214.970582,175.7 L212.066568,181.42 L261.021211,181.42 L263.931549,175.7 L242.916842,175.7 L249.035166,163.71 L265.433116,163.71 L268.280447,158.155 L251.880588,158.155 L257.421883,147.375 L274.871169,147.375 L277.738558,141.82 L260.287388,141.82 L264.954835,132.8 L259.1735,132.8 L254.507031,141.82 L244.928155,141.82 C246.66806,139.73 248.384206,137.475 250.103417,135.11 L244.781685,134.01 C238.555288,142.755 231.68332,149.685 224.074438,154.855 L225.419604,159.64 C230.467492,156.34 235.336618,152.215 239.972597,147.375 Z M283.078443,150.675 L304.049239,150.675 L307.086501,144.79 L312.811478,144.79 L309.773551,150.675 L330.744348,150.675 L327.909602,156.175 L306.941142,156.175 L304.17173,161.565 L319.029606,161.565 L307.923797,183.29 L302.368508,183.29 L303.628291,180.815 L279.315649,180.815 L278.057245,183.29 L272.501957,183.29 L283.59082,161.565 L298.448696,161.565 L301.217468,156.175 L280.249007,156.175 L283.078443,150.675 Z M282.004703,175.535 L306.320239,175.535 L310.763817,166.845 L286.443653,166.845 L282.004703,175.535 Z M290.070877,136.925 L301.247269,136.925 L303.586839,132.415 L309.368214,132.415 L307.028162,136.925 L312.864111,136.925 L310.072663,142.315 L304.237311,142.315 L301.537918,147.54 L295.758205,147.54 L298.457009,142.315 L287.28176,142.315 L290.070877,136.925 Z M323.408698,132.415 L329.190074,132.415 L326.848366,136.925 L338.024758,136.925 L335.230736,142.315 L324.055487,142.315 L321.354078,147.54 L315.574365,147.54 L318.275185,142.315 L312.384783,142.315 L315.176468,136.925 L321.067473,136.925 L323.408698,132.415 Z M363.552498,143.965 L387.939087,143.965 L378.393379,162.445 L354.015908,162.445 L363.552498,143.965 Z M375.55497,157.165 L379.616647,149.3 L366.351291,149.3 L362.291725,157.165 L375.55497,157.165 Z M371.389294,163.545 L376.375246,165.085 C373.185862,169.045 369.977163,172.62 366.72016,175.865 L374.311832,175.865 L371.443597,181.475 L340.200673,181.475 L343.064948,175.865 L360.998899,175.865 C364.31318,172.4 367.748819,168.275 371.389294,163.545 Z M359.667059,163.655 C359.323777,166.68 358.701662,170.145 357.719778,173.995 L351.901233,175.26 C352.766333,171.85 353.412281,168.55 353.728771,165.36 L359.667059,163.655 Z M347.537301,145.34 C345.213315,147.705 342.95095,149.74 340.721387,151.5 L338.60975,147.595 C343.581185,143.305 348.102126,138.3 352.284818,132.58 L357.047202,134.01 C355.408431,136.21 353.829848,138.19 352.25413,140.06 L363.484914,140.06 L360.748644,145.34 L355.629249,145.34 C353.897611,148.475 352.226612,151.39 350.587485,154.14 L356.311397,154.14 L353.619177,159.365 L347.290532,159.365 C346.363075,160.74 345.492572,162.005 344.678933,163.16 C346.135356,165.36 347.534747,167.78 348.794194,170.475 L342.765426,175.59 C342.030276,172.51 341.371989,170.035 340.706535,168.22 C336.244746,173.28 330.915525,177.68 324.800286,181.365 L323.41521,176.855 C330.006106,172.785 335.511781,167.835 339.879649,162.005 L341.73233,159.365 L332.707131,159.365 L335.397103,154.14 L345.083724,154.14 C346.722544,151.39 348.393224,148.475 350.069475,145.34 L347.537301,145.34 Z M366.586038,134.725 L394.830985,134.725 L392.028787,140.115 L363.786698,140.115 L366.586038,134.725 Z M415.717299,152.93 C414.341325,152.93 413.041437,153.315 411.789314,154.14 C410.510745,154.91 409.530558,155.955 408.84891,157.275 C408.224384,158.485 408.070484,159.53 408.470474,160.355 C408.870577,161.18 409.634302,161.62 410.844942,161.62 C411.450262,161.62 411.947199,161.51 412.334081,161.4 C411.653765,162.72 410.506895,163.985 408.891875,165.305 C407.223806,166.515 405.505684,167.395 403.737314,167.945 L401.872627,171.575 C405.157134,170.75 408.230822,169.265 411.039321,167.12 C413.822219,164.92 416.005954,162.39 417.509253,159.475 C418.502957,157.55 418.83157,155.955 418.521332,154.745 C418.156312,153.535 417.203351,152.93 415.717299,152.93 Z M469.192838,157.33 L466.179256,163.16 C462.751809,164.15 459.271371,165.03 455.654487,165.855 L449.910591,177.02 C448.048546,180.65 445.165217,182.52 441.314949,182.52 L435.099516,182.52 L436.624796,177.075 C438.4373,177.295 440.196206,177.405 441.956533,177.405 C443.221769,177.405 444.220593,176.745 444.841776,175.535 L449.11336,167.23 C445.582123,167.89 442.024358,168.495 438.329993,169.045 L440.47979,163.27 C444.50538,162.72 448.42281,162.06 452.14871,161.345 L457.042677,151.885 L446.309852,151.885 L449.16235,146.385 L459.896347,146.385 L462.555764,141.27 C459.627102,141.82 456.700721,142.26 453.637875,142.645 L455.2611,137.2 C463.288894,136.375 470.94802,134.78 478.158058,132.36 L477.326969,137.75 C474.639652,138.575 471.899744,139.29 469.078542,139.95 L465.731238,146.385 L477.015696,146.385 C478.888304,142.15 481.21414,137.475 483.855639,132.415 L489.637014,132.415 C486.935273,137.695 484.692812,142.315 482.905633,146.385 L499.364428,146.385 L496.506447,151.885 L480.48977,151.885 C478.96669,155.46 477.952713,158.375 477.363205,160.685 C477.128414,161.565 476.950607,162.335 476.772912,163.105 C480.478899,160.3 484.08243,157.165 487.50055,153.755 L491.085432,156.395 C486.101865,161.345 480.940717,165.69 475.712162,169.32 C475.582248,170.64 475.592622,171.795 475.744774,172.675 C476.04009,175.095 476.628217,176.305 477.398379,176.305 C478.003506,176.305 480.051484,173.5 483.545421,168 L487.272838,170.695 C481.795528,178.56 477.727485,182.52 475.032297,182.52 C472.612129,182.52 470.92825,180.87 470.008756,177.625 C469.668494,176.36 469.468343,174.93 469.491751,173.28 C464.167342,176.36 458.743956,178.78 453.275527,180.54 L452.597052,175.645 C458.619279,173.775 464.433756,171.135 469.986801,167.725 C470.289191,165.965 470.675577,164.15 471.146022,162.28 C471.855718,159.31 473.043542,155.845 474.655517,151.885 L462.87693,151.885 L458.66378,160.025 C462.282028,159.2 465.818905,158.32 469.192838,157.33 Z M495.434951,132.91 C498.024738,135.33 500.064795,137.75 501.555193,140.17 L495.277492,144.295 C494.280588,141.875 492.406085,139.345 489.656348,136.595 L495.434951,132.91 Z M511.24261,152.655 L507.136448,160.575 L519.243117,160.575 L523.351249,152.655 L511.24261,152.655 Z M504.130776,165.855 C499.896804,172.675 494.917432,178.395 489.245739,182.905 L486.878546,178.945 C492.500231,174.325 497.183816,168.44 500.988267,161.29 L515.148199,134.065 L557.818963,134.065 L536.244238,175.59 C534.06273,179.825 530.758959,181.97 526.413601,181.97 L520.088081,181.97 L521.434325,176.36 C523.521468,176.58 525.445212,176.69 527.31559,176.69 C528.965923,176.69 530.412918,175.59 531.49052,173.5 L535.439525,165.855 L522.343774,165.855 L514.3485,181.365 L508.51794,181.365 L516.511213,165.855 L504.130776,165.855 Z M538.173545,160.575 L542.284759,152.655 L529.185412,152.655 L525.07633,160.575 L538.173545,160.575 Z M545.032358,147.375 L549.049011,139.675 L535.946334,139.675 L531.931632,147.375 L545.032358,147.375 Z M530.110687,139.675 L517.998969,139.675 L513.98694,147.375 L526.096855,147.375 L530.110687,139.675 Z M578.11044,177.515 L598.409882,138.465 L614.816131,138.465 C616.577885,138.465 618.009887,138.831663 619.112225,139.565 C620.214624,140.298337 620.986068,141.260827 621.426701,142.4525 C621.867552,143.644173 621.992982,145.000826 621.80313,146.5225 C621.613678,148.044174 621.107539,149.593325 620.284752,151.17 C619.424195,152.820008 618.313242,154.405826 616.951828,155.9275 C615.590884,157.449174 614.086966,158.805827 612.439915,159.9975 C610.793182,161.189173 609.059666,162.142496 607.239182,162.8575 C605.418838,163.572504 603.628318,163.93 601.867464,163.93 L591.302391,163.93 L584.27157,177.515 L578.11044,177.515 Z M594.130246,158.485 L604.311297,158.485 C605.191824,158.485 606.085147,158.301668 606.991317,157.935 C607.897524,157.568331 608.779185,157.055003 609.63637,156.395 C610.493652,155.734997 611.298236,154.965004 612.050192,154.085 C612.802304,153.204996 613.455582,152.233339 614.010088,151.17 C614.583938,150.069994 614.935463,149.080004 615.064602,148.2 C615.193875,147.319996 615.132586,146.55917 614.880678,145.9175 C614.628833,145.27583 614.217817,144.780835 613.64758,144.4325 C613.077356,144.084165 612.388566,143.91 611.581179,143.91 L601.727445,143.91 L594.130246,158.485 Z M609.10928,184.28 C609.60258,184.390001 610.096157,184.481666 610.590028,184.555 C611.083897,184.628334 611.495829,184.665 611.825838,184.665 C612.302516,184.665 612.767015,184.564168 613.219355,184.3625 C613.671706,184.160832 614.213608,183.803336 614.845112,183.29 C615.476674,182.776664 616.226274,182.052505 617.094025,181.1175 C617.961957,180.182495 619.031599,178.981674 620.303176,177.515 L623.419302,148.75 L629.639225,148.75 L626.365363,172.18 L646.482558,148.75 L652.20709,148.75 L620.771368,184.17 C619.333694,185.820008 617.602763,187.204161 615.578341,188.3225 C613.554228,189.440839 611.405766,190 609.132659,190 C608.692703,190 608.248574,189.9725 607.800258,189.9175 C607.351941,189.8625 606.881656,189.743334 606.389392,189.56 L609.10928,184.28 Z M650.27962,157.715 C651.503131,155.368322 653.144815,153.030845 655.20477,150.7025 C657.265804,148.374155 659.597647,146.284176 662.200124,144.4325 C664.80335,142.580824 667.577638,141.086672 670.522765,139.95 C673.46823,138.813328 676.427531,138.245 679.400503,138.245 C682.960728,138.245 685.593058,139.033325 687.297796,140.61 C689.002834,142.186675 689.834338,144.239987 689.792885,146.77 L683.250241,150.015 C683.313775,148.841661 683.171463,147.851671 682.8232,147.045 C682.475032,146.238329 681.967123,145.596669 681.299406,145.12 C680.631714,144.643331 679.855295,144.304168 678.970109,144.1025 C678.084922,143.900832 677.183599,143.8 676.266113,143.8 C674.210943,143.8 672.196556,144.212496 670.223021,145.0375 C668.249661,145.862504 666.385078,146.953327 664.629381,148.31 C662.874078,149.666673 661.289835,151.188325 659.876727,152.875 C658.464179,154.561675 657.318214,156.248325 656.438768,157.935 C655.445244,159.841676 654.811949,161.656658 654.538739,163.38 C654.26603,165.103342 654.346229,166.624993 654.779155,167.945 C655.212338,169.265007 655.99466,170.319163 657.125997,171.1075 C658.257396,171.895837 659.740041,172.29 661.573933,172.29 C662.527557,172.29 663.570514,172.170835 664.702851,171.9325 C665.83521,171.694165 667.007037,171.309169 668.218408,170.7775 C669.429852,170.245831 670.639428,169.576671 671.847227,168.77 C673.055172,167.963329 674.211498,166.991672 675.316325,165.855 L678.917388,168.77 C677.531556,170.236674 675.979879,171.529161 674.262197,172.6475 C672.5448,173.765839 670.771343,174.709996 668.941679,175.48 C667.112173,176.250004 665.295334,176.836665 663.491033,177.24 C661.686791,177.643335 660.014578,177.845 658.4743,177.845 C655.723802,177.845 653.515492,177.258339 651.849403,176.085 C650.183448,174.911661 649.014722,173.380843 648.343477,171.4925 C647.672753,169.604157 647.502679,167.459179 647.833585,165.0575 C648.165461,162.655821 648.980754,160.208346 650.27962,157.715 Z M691.97112,178.065 C689.697386,178.065 687.862026,177.661671 686.465021,176.855 C685.068069,176.048329 684.079779,174.966673 683.500276,173.61 C682.921028,172.253327 682.754549,170.667509 683.001046,168.8525 C683.248084,167.037491 683.887097,165.14001 684.918229,163.16 C685.950071,161.17999 687.288103,159.282509 688.932319,157.4675 C690.577184,155.652491 692.4056,154.066673 694.417438,152.71 C696.429681,151.353327 698.555212,150.271671 700.793922,149.465 C703.032809,148.658329 705.27152,148.255 707.509991,148.255 C709.748463,148.255 711.564559,148.658329 712.958379,149.465 C714.352256,150.271671 715.345327,151.353327 715.93777,152.71 C716.530471,154.066673 716.700893,155.652491 716.449252,157.4675 C716.198148,159.282509 715.556005,161.17999 714.522927,163.16 C713.49055,165.14001 712.153385,167.037491 710.511351,168.8525 C708.86996,170.667509 707.045787,172.253327 705.038601,173.61 C703.031821,174.966673 700.911513,176.048329 698.677441,176.855 C696.443552,177.661671 694.20818,178.065 691.97112,178.065 Z M691.107657,163.215 C690.381801,164.60834 689.933665,165.891661 689.763141,167.065 C689.592843,168.238339 689.668865,169.255829 689.991119,170.1175 C690.313478,170.979171 690.868741,171.657498 691.656862,172.1525 C692.445005,172.647502 693.444245,172.895 694.654598,172.895 C695.86495,172.895 697.121358,172.647502 698.423909,172.1525 C699.726527,171.657498 700.99174,170.970004 702.219663,170.09 C703.447753,169.209996 704.587272,168.183339 705.638329,167.01 C706.689655,165.836661 707.578463,164.55334 708.30484,163.16 C709.012436,161.803327 709.457173,160.529173 709.638992,159.3375 C709.821044,158.145827 709.756801,157.110004 709.446169,156.23 C709.135649,155.349996 708.586995,154.662502 707.800125,154.1675 C707.013279,153.672498 706.014454,153.425 704.803603,153.425 C703.629444,153.425 702.385293,153.681664 701.071163,154.195 C699.757102,154.708336 698.484918,155.404996 697.254644,156.285 C696.024538,157.165004 694.869197,158.200827 693.788671,159.3925 C692.708424,160.584173 691.814748,161.858327 691.107657,163.215 Z M738.244799,177.515 L732.19369,177.515 L740.589598,161.4 C742.00775,158.686653 742.607524,156.715839 742.388131,155.4875 C742.168961,154.259161 741.215551,153.645 739.527705,153.645 C738.64709,153.645 737.68009,153.809998 736.626699,154.14 C735.573339,154.470002 734.503099,154.937497 733.415985,155.5425 C732.328956,156.147503 731.26705,156.862496 730.230279,157.6875 C729.193649,158.512504 728.251648,159.419995 727.404283,160.41 L718.496178,177.515 L712.445069,177.515 L727.451652,148.75 L732.956009,148.75 L729.930761,154.525 C732.048918,152.581657 734.447,151.050839 737.12475,149.9325 C739.802814,148.814161 742.407945,148.255 744.939987,148.255 C746.664711,148.255 747.91396,148.566664 748.687802,149.19 C749.461685,149.813336 749.886085,150.665828 749.961116,151.7475 C750.036325,152.829172 749.832649,154.075826 749.350198,155.4875 C748.868083,156.899174 748.214747,158.393325 747.390248,159.97 L738.244799,177.515 Z M804.383722,147.54 L802.41777,151.28 L815.682602,151.28 L817.64954,147.54 L804.383722,147.54 Z M799.819452,156.23 L797.772624,160.135 L811.035051,160.135 L813.082952,156.23 L799.819452,156.23 Z M816.648195,160.135 L834.973458,160.135 C828.983013,171.575 824.793154,178.23 822.359302,180.155 C819.926197,182.08 816.660491,183.07 812.645262,183.07 C810.995168,183.07 809.318695,183.015 807.615839,182.905 L809.076823,177.46 C810.942493,177.68 812.70047,177.79 814.405772,177.79 C817.156259,177.79 819.265523,176.91 820.566549,175.26 C821.868065,173.61 823.841092,170.255 826.48849,165.195 L789.40168,165.195 L805.876821,133.845 L846.89598,133.845 L844.192504,138.96 L827.786409,138.96 L825.842617,142.645 L839.715252,142.645 L837.13543,147.54 L823.264119,147.54 L821.296763,151.28 L835.056961,151.28 L832.455366,156.23 L818.696549,156.23 L816.648195,160.135 Z M822.170899,138.96 L808.902882,138.96 L806.960419,142.645 L820.227503,142.645 L822.170899,138.96 Z M787.65396,167.065 L791.942609,168.44 C788.029228,173.83 784.160959,178.615 780.393537,182.685 L776.087559,180.705 C779.681824,177.075 783.517448,172.565 787.65396,167.065 Z M800.535755,168 C799.644524,170.97 797.987286,175.095 795.513726,180.265 L789.695993,180.98 C792.309304,175.645 794.130722,171.52 795.102654,168.605 L800.535755,168 Z M809.820617,167.395 C809.272687,170.97 808.540124,174.27 807.706236,177.24 L801.697274,179.165 C802.735326,175.59 803.55294,172.125 804.233659,168.715 L809.820617,167.395 Z M819.584883,166.295 C819.364372,168.715 818.862275,171.465 818.105356,174.6 L812.577812,175.81 C813.297802,173.06 813.796445,170.42 814.128597,167.89 L819.584883,166.295 Z M871.012651,140.61 L868.138173,146.055 L897.753186,146.055 L900.630781,140.61 L888.57433,140.61 C889.458664,137.585 890.169635,134.89 890.65176,132.525 L884.290843,133.515 C884.0068,135.715 883.526084,138.08 882.903945,140.61 L871.012651,140.61 Z M851.230041,175.535 L868.008861,175.535 C874.091751,168.33 880.888666,159.365 888.268309,148.695 L893.018425,150.125 C886.441261,159.585 880.013166,168.055 873.785177,175.535 L883.522393,175.535 L880.589341,181.145 L848.301076,181.145 L851.230041,175.535 Z M874.136381,149.19 C872.167546,156.065 869.466331,163.93 866.062802,172.84 L859.978282,174.27 C863.056207,166.185 865.724807,158.375 867.953964,150.895 L874.136381,149.19 Z M863.209534,153.425 L860.14446,159.255 C857.8374,160.19 855.559423,161.07 853.3105,161.895 L845.307076,177.185 C843.355302,180.925 840.455163,182.795 836.659923,182.795 L831.709609,182.795 L833.286083,177.24 C834.711555,177.46 836.084408,177.57 837.404648,177.57 C838.669879,177.57 839.674542,176.91 840.306394,175.7 L846.263462,164.315 C843.768937,165.085 841.274578,165.855 838.837992,166.515 L840.463123,160.685 C843.338142,160.135 846.328757,159.365 849.322287,158.485 L855.167017,147.375 L848.231339,147.375 L851.160652,141.82 L858.097079,141.82 L863.011334,132.525 L868.792698,132.525 L863.877436,141.82 L869.382537,141.82 L866.451256,147.375 L860.946749,147.375 L856.314547,156.175 C858.593388,155.295 860.872423,154.415 863.209534,153.425 Z M897.459544,160.19 L905.383973,160.19 L907.265668,156.615 L912.769151,156.615 L910.887048,160.19 L917.54577,160.19 L914.942473,165.14 L908.284447,165.14 L907.735512,166.185 C909.400133,167.835 910.923402,169.65 912.415475,171.63 L907.248585,176.03 C906.528067,173.94 905.88131,172.235 905.224207,170.97 L899.120096,182.63 L893.619726,182.63 L899.549381,171.3 C895.902471,174.27 891.932286,177.02 887.638582,179.55 L888.40209,173.885 C893.966407,171.245 898.686242,168.33 902.451797,165.14 L894.858346,165.14 L897.459544,160.19 Z M931.624585,169.1 C932.579629,172.73 932.98087,176.58 932.883783,180.65 L926.69808,182.905 C926.752394,181.75 926.833103,180.65 926.858971,179.55 C921.002447,180.65 914.766414,181.53 908.179479,182.135 L909.920784,177.02 C912.186622,176.58 917.290546,172.51 925.266683,164.865 L929.432599,166.57 C925.31942,170.42 921.49467,173.83 917.905174,176.69 C920.828638,176.36 923.83864,175.865 926.822563,175.315 C926.726421,173.61 926.517924,172.015 926.223136,170.585 L931.624585,169.1 Z M924.233436,158.045 L927.735129,159.86 C923.427547,164.7 919.096377,168.44 914.878532,171.025 L912.654637,167.505 C916.897254,165.085 920.746859,161.95 924.233436,158.045 Z M930.631941,157.495 L939.767557,157.495 C939.111947,161.455 940.048103,164.59 942.464656,166.9 L936.678095,171.63 C934.72908,169.265 933.816782,166.185 934.023374,162.445 L928.025306,162.445 L930.631941,157.495 Z M936.665802,133.075 L934.973556,136.265 L918.346403,136.265 L917.559649,137.75 L932.314461,137.75 L930.828557,140.555 L916.074529,140.555 L915.317896,141.985 L930.07152,141.985 L928.587513,144.79 L913.834688,144.79 L913.049973,146.275 L930.940007,146.275 L929.022026,149.905 L925.003938,149.905 C925.120672,151.665 925.069729,153.535 924.935242,155.46 L919.460072,157.495 C919.625374,156.45 919.761845,155.46 919.840465,154.58 C913.736852,155.405 907.558247,155.955 901.304485,156.23 L902.145211,152.545 C903.193909,152.435 904.703662,151.555 906.674849,149.905 L901.555915,149.905 L903.471924,146.275 L907.435255,146.275 L914.421541,133.075 L936.665802,133.075 Z M912.013953,149.905 C910.889107,150.785 909.903499,151.61 909.005025,152.27 C912.753677,152.05 916.395278,151.72 920.039948,151.28 C920.054997,150.73 920.067067,150.29 920.05013,149.905 L912.013953,149.905 Z M951.851034,131.645 L954.581889,134.175 C949.520871,137.695 942.995125,140.555 935.172193,142.645 L934.885853,138.3 C941.871706,136.65 947.498505,134.45 951.851034,131.645 Z M951.554638,137.805 L954.17724,140.335 C948.504752,144.185 941.31566,147.265 932.553904,149.575 L932.315128,145.34 C940.240516,143.47 946.615685,140.995 951.554638,137.805 Z M950.794038,144.02 L953.580509,146.66 C947.129222,150.95 938.805251,154.415 928.665395,156.945 L928.425019,152.6 C937.619313,150.51 945.075339,147.65 950.794038,144.02 Z M978.491473,157.22 L1000.39506,157.22 L990.944199,175.15 L969.049027,175.15 L978.491473,157.22 Z M988.37665,170.2 L992.608356,162.17 L980.997348,162.17 L976.767642,170.2 L988.37665,170.2 Z M964.174509,139.235 L972.047191,139.235 L975.727223,132.305 L981.178245,132.305 L977.49751,139.235 L985.260085,139.235 L982.576526,144.295 L974.814704,144.295 L971.321373,150.895 L978.641856,150.895 L975.909375,156.065 L969.80044,156.065 L966.521914,162.28 L973.015259,162.28 L970.291845,167.45 L963.799216,167.45 L959.578577,175.48 C959.659728,175.535 959.795891,175.59 959.932055,175.645 C962.574191,176.69 969.711939,177.24 981.374149,177.24 C986.325087,177.24 990.123593,177.13 992.659669,176.91 L988.666106,182.63 L979.810512,182.63 C965.509552,182.63 957.031218,181.805 954.236784,180.21 C952.230766,179 950.874903,177.075 950.282517,174.325 C947.893607,177.515 945.456635,180.485 942.913736,183.345 L940.692057,179.605 C946.125996,173.335 950.9785,166.405 955.25133,158.815 L959.830157,159.42 C958.241612,162.225 956.657191,164.92 954.937788,167.56 C955.086523,169.265 955.490201,170.695 956.064731,171.905 L964.406966,156.065 L954.830797,156.065 L957.561069,150.895 L965.872293,150.895 L969.364915,144.295 L961.492996,144.295 L964.174509,139.235 Z M993.09021,139.73 L986.318665,139.73 L989.122851,134.45 L1013.2936,134.45 C1007.9797,144.35 1004.28115,150.29 1002.24228,152.27 C1000.14904,154.25 997.864358,155.24 995.332684,155.24 C994.17692,155.24 992.80412,155.13 991.185204,154.965 L992.430765,149.905 C994.159815,150.07 995.587721,150.18 996.740413,150.29 C997.92541,150.235 998.961283,149.63 999.819059,148.53 C1000.67703,147.43 1002.38737,144.515 1004.9817,139.73 L998.430371,139.73 C995.78851,143.36 993.336559,146.22 991.070296,148.42 C988.073526,151.17 984.452932,153.645 980.263316,155.845 L979.104995,151.06 C982.509881,149.41 985.342189,147.595 987.712098,145.615 C989.4641,144.075 991.255579,142.15 993.09021,139.73 Z M1035.80835,136.32 L1049.18714,136.32 L1051.2085,132.525 L1056.54938,132.525 L1054.52764,136.32 L1067.85137,136.32 L1065.09926,141.49 L1051.77684,141.49 L1050.02308,144.79 L1061.69322,144.79 L1053.7305,159.805 L1046.19123,159.805 C1048.24617,162.995 1049.86192,166.185 1050.95756,169.32 L1044.99131,173.225 C1044.17195,169.98 1042.67059,166.57 1040.40631,162.94 L1033.64574,175.755 L1028.30955,175.755 L1035.03957,162.995 C1030.08111,167.175 1024.39927,170.75 1017.93528,173.83 L1016.79307,169.21 C1023.52248,166.57 1029.08429,163.435 1033.47902,159.805 L1025.05925,159.805 L1033.01329,144.79 L1044.68343,144.79 L1046.43685,141.49 L1033.05937,141.49 L1035.80835,136.32 Z M1051.12341,154.855 L1053.86462,149.685 L1047.42465,149.685 L1044.6841,154.855 L1051.12341,154.855 Z M1039.34553,154.855 L1042.08552,149.685 L1035.70058,149.685 L1032.96126,154.855 L1039.34553,154.855 Z M1026.48628,132.525 L1020.7555,136.155 C1022.86859,139.015 1024.27362,141.655 1024.97046,144.075 L1030.61604,140.39 C1029.70723,137.75 1028.32952,135.165 1026.48628,132.525 Z M1014.40988,145.615 L1027.89638,145.615 L1025.53383,150.07 C1022.42578,152.82 1019.07297,155.515 1015.41723,158.265 L1021.96615,158.265 L1019.98963,162.005 C1017.04475,166.02 1014.3142,169.32 1011.7969,171.905 C1012.06615,172.125 1012.27749,172.455 1012.48884,172.785 C1013.4386,174.325 1014.5651,175.425 1015.75816,176.085 C1017.06412,176.635 1019.20096,176.965 1022.16868,177.075 C1025.11031,177.13 1028.49202,177.185 1032.39776,177.185 C1036.35852,177.185 1041.61639,177.02 1048.1425,176.745 L1043.98514,182.135 L1030.50908,182.135 C1026.71378,182.135 1023.03129,182.025 1019.34879,181.915 C1015.66626,181.805 1013.00827,181.42 1011.45872,180.705 C1009.61084,179.825 1008.15929,178.505 1007.24321,176.69 C1007.11561,176.305 1006.7623,176.14 1006.26719,176.14 C1005.33199,176.14 1002.49337,178.505 997.809237,183.235 L995.705081,179.385 C1000.66964,174.545 1004.5115,171.74 1007.23063,170.86 C1009.60609,168.44 1011.93352,165.8 1014.04505,163.05 L1006.17613,163.05 L1008.44162,158.76 C1012.48515,155.9 1015.9184,153.26 1018.88022,150.785 L1011.6698,150.785 L1014.40988,145.615 Z M1076.67926,163.845566 L1069.88155,163.845566 L1082.95224,138.413437 L1090.61364,138.413437 L1076.67926,163.845566 Z M1063.62273,173.862656 C1063.93443,173.271833 1064.32105,172.725777 1064.7826,172.224473 C1065.2442,171.723168 1065.76229,171.284533 1066.33689,170.908555 C1066.91151,170.532576 1067.52184,170.241645 1068.16787,170.035752 C1068.81391,169.829859 1069.47722,169.726914 1070.15781,169.726914 C1070.82048,169.726914 1071.36608,169.829859 1071.79462,170.035752 C1072.22317,170.241645 1072.5262,170.532576 1072.70373,170.908555 C1072.88128,171.284533 1072.94069,171.723168 1072.88196,172.224473 C1072.82327,172.725777 1072.63802,173.271833 1072.32621,173.862656 C1072.02389,174.435576 1071.63755,174.97268 1071.16716,175.473984 C1070.69682,175.975289 1070.17923,176.404972 1069.61436,176.763047 C1069.04952,177.121122 1068.44424,177.403101 1067.79849,177.608994 C1067.15276,177.814887 1066.49863,177.917832 1065.83608,177.917832 C1065.15562,177.917832 1064.60105,177.814887 1064.17235,177.608994 C1063.74365,177.403101 1063.43565,177.121122 1063.24834,176.763047 C1063.06104,176.404972 1063.00105,175.975289 1063.06839,175.473984 C1063.13575,174.97268 1063.32053,174.435576 1063.62273,173.862656 Z" id="人生苦短，我用-PyCon-馬拉鬆超速!"></path>
        </g>
    </g>
</svg>